<?xml version="1.0" encoding="utf-8"?>
<!-- Svg Vector Icons : http://www.onlinewebfonts.com/icon -->
<!DOCTYPE svg PUBLIC "-//W3C//DTD SVG 1.1//EN" "http://www.w3.org/Graphics/SVG/1.1/DTD/svg11.dtd">
<svg version="1.1" xmlns="http://www.w3.org/2000/svg" xmlns:xlink="http://www.w3.org/1999/xlink" x="0px" y="0px" viewBox="0 0 1000 1000" enable-background="new 0 0 1000 1000" xml:space="preserve">
<metadata> Svg Vector Icons : http://www.onlinewebfonts.com/icon </metadata>
<g><g transform="translate(0.000000,511.000000) scale(0.100000,-0.100000)"><path d="M6334.6,3791.1l-698-698l-65.6,50.1c-94.5,73.3-293.1,162-468.6,208.3c-200.5,54-674.9,61.7-888.9,11.6c-520.6-119.6-925.6-385.7-1201.3-790.6c-115.7-169.7-227.5-439.7-298.9-717.3c-100.3-393.4-202.5-588.1-414.6-800.2c-125.3-125.3-200.5-183.2-310.5-235.3c-360.6-175.5-755.9-194.8-1137.7-54c-165.8,59.8-275.7,123.4-418.4,243c-119.5,102.2-210.2,113.8-285.4,36.6C40.7,941.1,114,810,378.1,632.6c310.5-206.3,655.6-300.8,1050.9-285.4c283.5,11.6,430,46.3,665.3,158.1c295,136.9,480.1,300.8,665.3,582.3c123.4,187,196.7,368.3,277.7,690.3c90.6,356.7,200.5,576.6,383.7,773.2c320.1,343.2,730.8,516.8,1218.7,514.8c275.7,0,439.7-34.7,630.6-135l135-69.4l-2123.1-2123c-1243.7-1245.7-2130.8-2146.2-2142.3-2179c-13.5-38.6-13.5-73.3,0-115.7c13.5-40.5,447.4-487.9,1345.9-1386.4l1326.7-1324.7h84.8h86.8l2958,2958l2958,2958l-11.6,82.9c-9.6,79.1-61.7,133-1347.9,1419.2L7204.2,4487.2h-86.8h-84.9L6334.6,3791.1z M7281.4,3607.9c38.6-17.4,81-61.7,106.1-111.8c59.8-109.9,42.4-208.3-52.1-295c-55.9-54-81-63.6-156.2-63.6c-233.3,0-349.1,231.4-202.5,406.9C7059.6,3642.6,7163.8,3663.8,7281.4,3607.9z M6781.9,3081.5c61.7-38.6,123.4-142.7,123.4-212.1c0-189-216-312.4-387.6-221.8c-86.8,44.3-140.8,175.5-115.7,273.8c19.3,71.4,96.4,162,156.2,183.2C6620,3127.8,6724.1,3116.2,6781.9,3081.5z M8162.6,2755.6c113.7-113.8,208.2-219.8,208.2-233.3c0-46.3-408.8-445.4-453.1-445.4c-27,0-113.8,73.3-246.8,210.2c-113.8,113.8-206.4,216-206.4,225.6c0,28.9,431.9,451.2,460.9,451.2C7940.9,2963.9,8048.8,2869.4,8162.6,2755.6z M6251.7,2568.6c123.4-65.6,167.8-231.4,94.5-351c-46.3-79.1-129.2-121.5-233.3-121.5c-67.5,0-92.6,11.6-154.3,75.2c-67.5,67.5-75.2,84.8-75.2,175.5s7.7,108,75.2,175.5c61.7,63.6,86.8,75.2,154.3,75.2C6157.2,2597.5,6218.9,2584,6251.7,2568.6z M8972.5,1945.7c113.7-113.8,208.2-219.8,208.2-235.3c0-42.4-410.7-443.5-455.1-443.5c-44.4,0-451.2,401.1-451.2,445.4c0,40.5,410.7,441.6,453.1,441.6C8748.8,2154,8852.9,2065.3,8972.5,1945.7z M7316.1,1905.2c113.8-113.8,206.3-219.8,206.3-233.3c0-36.6-406.9-443.5-441.6-443.5c-38.6,0-445.4,404.9-445.4,443.5c0,38.6,404.9,443.5,443.5,443.5C7096.3,2115.4,7202.3,2020.9,7316.1,1905.2z M5655.9,1870.5c115.7-113.8,208.2-219.8,208.2-237.2c0-36.6-404.9-443.5-443.5-443.5c-36.6,0-443.5,404.9-443.5,443.5c0,36.6,404.9,443.5,443.5,443.5C5436,2076.8,5542.1,1984.3,5655.9,1870.5z M4863.3,1099.2c136.9-133,210.2-219.8,210.2-246.8c0-27-73.3-113.8-210.2-246.8c-113.8-113.8-216-206.3-225.6-206.3c-23.1,0-451.2,428.1-451.2,453.1c0,23.1,426.2,453.1,451.2,453.1C4647.4,1305.5,4749.6,1213,4863.3,1099.2z M8126,1095.4c113.8-113.8,206.3-219.8,206.3-235.3c0-34.7-408.8-441.6-445.4-441.6c-15.4,0-125.3,98.3-246.8,219.8c-187,187-216,223.7-198.6,254.5c38.6,71.3,403,412.7,441.6,412.7C7904.2,1305.5,8004.5,1220.7,8126,1095.4z M6872.6,653.8C7208.1,316.3,7483.8,29,7483.8,15.5c0-34.7-381.8-422.3-430-437.7c-30.9-9.6-113.8,65.5-416.5,366.4c-208.2,208.2-391.4,377.9-406.9,377.9c-15.4,0-154.3-125.3-308.5-279.6c-179.3-179.3-293.1-279.6-318.2-279.6c-40.5,0-453.1,397.2-453.1,435.8c0,30.9,1049,1068.3,1079.8,1068.3C6247.8,1267,6535.1,991.2,6872.6,653.8z M4093.9,308.6c115.7-113.8,208.3-219.8,208.3-237.2c0-36.7-404.9-443.5-443.5-443.5c-36.6,0-443.5,404.9-443.5,443.5c0,36.6,404.9,443.5,443.5,443.5C3874.1,514.9,3980.2,422.4,4093.9,308.6z M5069.6-339.3c119.5-121.5,216-227.5,216-235.3c0-7.7-92.5-109.9-206.3-223.7c-133.1-136.9-219.8-210.2-246.8-210.2s-113.8,73.3-246.8,210.2c-113.8,113.8-206.3,216-206.3,225.6c0,25.1,430,451.2,453.1,451.2C4844-121.4,4950.1-219.7,5069.6-339.3z M3301.4-462.7c136.9-133,210.2-219.8,210.2-246.8c0-27-73.3-113.8-210.2-246.8c-113.8-113.8-216-206.3-225.6-206.3c-23.1,0-451.2,428.1-451.2,453.1c0,23.1,426.2,453.2,451.2,453.2C3085.4-256.4,3187.6-348.9,3301.4-462.7z M6483.1-520.5c131.1-129.2,210.2-221.8,210.2-244.9c0-54-381.8-435.8-433.9-435.8c-25,0-119.5,81-248.8,210.2c-162,163.9-206.3,217.9-196.7,246.8c15.4,48.2,403,430,435.8,430C6263.3-314.2,6369.3-406.8,6483.1-520.5z M4286.8-1118.3c115.7-113.8,208.3-221.7,208.3-237.2c0-36.6-406.9-443.5-443.5-443.5c-36.6,0-443.5,406.9-443.5,441.6c0,38.6,404.9,445.4,443.5,445.4C4066.9-912,4173-1004.5,4286.8-1118.3z M2532-1253.3c115.7-113.8,208.3-219.8,208.3-237.2c0-36.6-404.9-443.5-443.5-443.5c-36.6,0-443.5,404.9-443.5,443.5c0,36.7,404.9,443.5,443.5,443.5C2312.2-1047,2418.3-1139.5,2532-1253.3z M5715.6-1315c113.8-113.8,206.3-219.8,206.3-235.2c0-42.4-1180.1-1212.9-1224.4-1212.9c-25.1,0-119.6,79.1-248.8,210.2c-160,160-206.3,217.9-196.7,244.9c19.3,63.7,1174.3,1203.3,1218.7,1203.3C5493.9-1104.8,5588.4-1185.8,5715.6-1315z M3505.8-1899.3c119.6-119.6,217.9-225.6,217.9-235.3c0-9.6-92.6-111.8-206.3-225.6c-133-136.9-219.8-210.2-246.8-210.2c-27,0-113.8,73.3-246.8,210.2c-113.8,113.8-206.3,216-206.3,225.6c0,23.1,428.1,451.2,453.1,451.2C3280.2-1683.3,3386.3-1781.6,3505.8-1899.3z M4151.8-2873.1c115.7-113.8,208.3-219.8,208.3-235.3c0-34.7-379.9-422.3-430-437.7c-28.9-9.6-82.9,34.7-246.8,196.7c-133,133.1-210.2,223.7-210.2,248.8c0,52.1,383.7,433.9,435.8,433.9C3928.1-2666.7,4036.1-2757.4,4151.8-2873.1z"/></g></g>
</svg>