<?xml version="1.0" encoding="utf-8"?>
<!-- Svg Vector Icons : http://www.onlinewebfonts.com/icon -->
<!DOCTYPE svg PUBLIC "-//W3C//DTD SVG 1.1//EN" "http://www.w3.org/Graphics/SVG/1.1/DTD/svg11.dtd">
<svg version="1.1" xmlns="http://www.w3.org/2000/svg" xmlns:xlink="http://www.w3.org/1999/xlink" x="0px" y="0px" viewBox="0 0 1000 1000" enable-background="new 0 0 1000 1000" xml:space="preserve">
<metadata> Svg Vector Icons : http://www.onlinewebfonts.com/icon </metadata>
<g><path d="M500,990c-180.4,0-326.6-146.3-326.6-326.7V336.7C173.3,156.3,319.6,10,500,10c180.4,0,326.7,146.3,326.7,326.7v326.6C826.7,843.7,680.4,990,500,990L500,990z M543.6,271.3c0-24-19.5-43.5-43.6-43.5c-24,0-43.5,19.5-43.5,43.5v196c0,24,19.5,43.6,43.5,43.6c24.1,0,43.6-19.5,43.6-43.6V271.3L543.6,271.3z"/></g>
</svg>