<?xml version="1.0" encoding="UTF-8" standalone="no"?>
<!-- Svg Vector Icons : http://www.onlinewebfonts.com/icon -->

<svg
   version="1.1"
   x="0px"
   y="0px"
   viewBox="0 0 1000 1000"
   enable-background="new 0 0 1000 1000"
   xml:space="preserve"
   id="svg8"
   sodipodi:docname="mouse-white.svg"
   inkscape:version="1.1.2 (0a00cf5339, 2022-02-04)"
   xmlns:inkscape="http://www.inkscape.org/namespaces/inkscape"
   xmlns:sodipodi="http://sodipodi.sourceforge.net/DTD/sodipodi-0.dtd"
   xmlns="http://www.w3.org/2000/svg"
   xmlns:svg="http://www.w3.org/2000/svg"><defs
   id="defs12" /><sodipodi:namedview
   id="namedview10"
   pagecolor="#ffffff"
   bordercolor="#666666"
   borderopacity="1.0"
   inkscape:pageshadow="2"
   inkscape:pageopacity="0.0"
   inkscape:pagecheckerboard="0"
   showgrid="false"
   inkscape:zoom="0.871"
   inkscape:cx="500.57405"
   inkscape:cy="500.57405"
   inkscape:window-width="1920"
   inkscape:window-height="1043"
   inkscape:window-x="0"
   inkscape:window-y="0"
   inkscape:window-maximized="1"
   inkscape:current-layer="svg8" />
<metadata
   id="metadata2"> Svg Vector Icons : http://www.onlinewebfonts.com/icon </metadata>
<g
   id="g6"
   style="fill:#ffffff;fill-opacity:1"><path
     d="M500,990c-180.4,0-326.6-146.3-326.6-326.7V336.7C173.3,156.3,319.6,10,500,10c180.4,0,326.7,146.3,326.7,326.7v326.6C826.7,843.7,680.4,990,500,990L500,990z M543.6,271.3c0-24-19.5-43.5-43.6-43.5c-24,0-43.5,19.5-43.5,43.5v196c0,24,19.5,43.6,43.5,43.6c24.1,0,43.6-19.5,43.6-43.6V271.3L543.6,271.3z"
     id="path4"
     style="fill:#ffffff;fill-opacity:1" /></g>
</svg>
